<svg width="35" height="35" viewBox="0 0 35 35" fill="none" xmlns="http://www.w3.org/2000/svg">
<circle cx="17.5" cy="17.5" r="17.5" fill="url(#paint0_linear_470_718)"/>
<g clip-path="url(#clip0_470_718)">
<path d="M27.1876 16.5251L17.7565 25.9562C16.6011 27.1116 15.034 27.7606 13.4001 27.7606C11.7661 27.7606 10.1991 27.1116 9.04372 25.9562C7.88834 24.8008 7.23926 23.2338 7.23926 21.5998C7.23926 19.9659 7.88834 18.3988 9.04372 17.2434L18.4748 7.81235C19.2451 7.0421 20.2898 6.60937 21.3791 6.60938C22.4684 6.60938 23.5131 7.0421 24.2833 7.81235C25.0536 8.5826 25.4863 9.62729 25.4863 10.7166C25.4863 11.8059 25.0536 12.8506 24.2833 13.6208L14.8419 23.0519C14.4568 23.4371 13.9345 23.6534 13.3898 23.6534C12.8452 23.6534 12.3228 23.4371 11.9377 23.0519C11.5526 22.6668 11.3362 22.1445 11.3362 21.5998C11.3362 21.0552 11.5526 20.5328 11.9377 20.1477L20.6504 11.4452" stroke="white" stroke-width="2" stroke-linecap="round" stroke-linejoin="round"/>
</g>
<defs>
<linearGradient id="paint0_linear_470_718" x1="-4.30775" y1="1.88471" x2="39.3076" y2="30.154" gradientUnits="userSpaceOnUse">
<stop stop-color="#0400FF"/>
<stop offset="0.53125" stop-color="#A40CEA"/>
<stop offset="1" stop-color="#EC0A7A"/>
</linearGradient>
<clipPath id="clip0_470_718">
<rect width="24.6296" height="24.6296" fill="white" transform="translate(5.18506 5.18555)"/>
</clipPath>
</defs>
</svg>
