<svg width="14" height="14" viewBox="0 0 14 14" fill="none" xmlns="http://www.w3.org/2000/svg">
<g clip-path="url(#clip0_470_693)">
<path d="M3 14H11.5H13V1H3V14Z" fill="white"/>
<path fill-rule="evenodd" clip-rule="evenodd" d="M7.47843 14H0.773598C0.568658 13.9999 0.372139 13.9185 0.227252 13.7735C0.0823655 13.6286 0.000976603 13.432 0.000976618 13.2271V0.772915C0.00093829 0.671403 0.0209027 0.570879 0.0597319 0.477087C0.098561 0.383295 0.155491 0.298078 0.22727 0.226298C0.29905 0.154518 0.384272 0.0975844 0.478064 0.0587553C0.571856 0.0199262 0.67238 -3.82729e-05 0.773892 5.50821e-08H13.2284C13.3298 4.78508e-08 13.4303 0.0199936 13.5241 0.0588399C13.6178 0.0976861 13.703 0.154625 13.7748 0.2264C13.8465 0.298176 13.9034 0.383385 13.9422 0.477158C13.9811 0.570931 14.001 0.671428 14.001 0.772915V13.2271C14.001 13.432 13.9196 13.6286 13.7747 13.7735C13.6298 13.9185 13.4333 13.9999 13.2284 14H9.66068V8.5785H11.4807L11.7531 6.46567H9.66068V5.11671C9.66068 4.50479 9.83073 4.088 10.7078 4.088L11.8266 4.08742V2.19771C11.6332 2.17204 10.9691 2.11458 10.1962 2.11458C8.58327 2.11458 7.47873 3.09925 7.47873 4.90729V6.46567H5.65435V8.5785H7.47873V14H7.47843Z" fill="#4460A0"/>
</g>
<defs>
<clipPath id="clip0_470_693">
<rect width="14" height="14" fill="white"/>
</clipPath>
</defs>
</svg>
