<svg width="14" height="14" viewBox="0 0 14 14" fill="none" xmlns="http://www.w3.org/2000/svg">
<g clip-path="url(#clip0_470_696)">
<path d="M9.625 0H4.375C3.21468 0 2.10188 0.460936 1.28141 1.28141C0.460936 2.10188 0 3.21468 0 4.375L0 9.625C0 10.7853 0.460936 11.8981 1.28141 12.7186C2.10188 13.5391 3.21468 14 4.375 14H9.625C10.7853 14 11.8981 13.5391 12.7186 12.7186C13.5391 11.8981 14 10.7853 14 9.625V4.375C14 3.21468 13.5391 2.10188 12.7186 1.28141C11.8981 0.460936 10.7853 0 9.625 0V0ZM12.6875 9.625C12.6875 11.3138 11.3138 12.6875 9.625 12.6875H4.375C2.68625 12.6875 1.3125 11.3138 1.3125 9.625V4.375C1.3125 2.68625 2.68625 1.3125 4.375 1.3125H9.625C11.3138 1.3125 12.6875 2.68625 12.6875 4.375V9.625Z" fill="url(#paint0_linear_470_696)"/>
<path d="M7.00049 3.5C6.07223 3.5 5.18199 3.86875 4.52561 4.52513C3.86924 5.1815 3.50049 6.07174 3.50049 7C3.50049 7.92826 3.86924 8.8185 4.52561 9.47487C5.18199 10.1313 6.07223 10.5 7.00049 10.5C7.92875 10.5 8.81898 10.1313 9.47536 9.47487C10.1317 8.8185 10.5005 7.92826 10.5005 7C10.5005 6.07174 10.1317 5.1815 9.47536 4.52513C8.81898 3.86875 7.92875 3.5 7.00049 3.5ZM7.00049 9.1875C6.42054 9.18681 5.86454 8.95611 5.45446 8.54603C5.04437 8.13594 4.81368 7.57995 4.81299 7C4.81299 5.79338 5.79474 4.8125 7.00049 4.8125C8.20624 4.8125 9.18799 5.79338 9.18799 7C9.18799 8.20575 8.20624 9.1875 7.00049 9.1875Z" fill="url(#paint1_linear_470_696)"/>
<path d="M10.7628 3.70326C11.0203 3.70326 11.2291 3.49445 11.2291 3.23688C11.2291 2.97931 11.0203 2.77051 10.7628 2.77051C10.5052 2.77051 10.2964 2.97931 10.2964 3.23688C10.2964 3.49445 10.5052 3.70326 10.7628 3.70326Z" fill="url(#paint2_linear_470_696)"/>
</g>
<defs>
<linearGradient id="paint0_linear_470_696" x1="1.281" y1="12.719" x2="12.719" y2="1.281" gradientUnits="userSpaceOnUse">
<stop stop-color="#FFC107"/>
<stop offset="0.507" stop-color="#F44336"/>
<stop offset="0.99" stop-color="#9C27B0"/>
</linearGradient>
<linearGradient id="paint1_linear_470_696" x1="4.52599" y1="9.4745" x2="9.47499" y2="4.5255" gradientUnits="userSpaceOnUse">
<stop stop-color="#FFC107"/>
<stop offset="0.507" stop-color="#F44336"/>
<stop offset="0.99" stop-color="#9C27B0"/>
</linearGradient>
<linearGradient id="paint2_linear_470_696" x1="10.4329" y1="3.56676" x2="11.0926" y2="2.90701" gradientUnits="userSpaceOnUse">
<stop stop-color="#FFC107"/>
<stop offset="0.507" stop-color="#F44336"/>
<stop offset="0.99" stop-color="#9C27B0"/>
</linearGradient>
<clipPath id="clip0_470_696">
<rect width="14" height="14" fill="white"/>
</clipPath>
</defs>
</svg>
