<svg width="30" height="30" viewBox="0 0 30 30" fill="none" xmlns="http://www.w3.org/2000/svg">
<path fill-rule="evenodd" clip-rule="evenodd" d="M9.44889 0.666504H20.4489C25.5107 0.666504 29.6156 4.77134 29.6156 9.83317V20.8332C29.6156 25.895 25.5107 29.9998 20.4489 29.9998H9.44889C4.38706 29.9998 0.282227 25.895 0.282227 20.8332V9.83317C0.282227 4.77134 4.38706 0.666504 9.44889 0.666504ZM20.4489 27.2498C23.9872 27.2498 26.8656 24.3715 26.8656 20.8332V9.83317C26.8656 6.29484 23.9872 3.4165 20.4489 3.4165H9.44889C5.91056 3.4165 3.03223 6.29484 3.03223 9.83317V20.8332C3.03223 24.3715 5.91056 27.2498 9.44889 27.2498H20.4489Z" fill="white"/>
<path fill-rule="evenodd" clip-rule="evenodd" d="M7.61572 15.3333C7.61572 11.2835 10.8992 8 14.9491 8C18.9989 8 22.2824 11.2835 22.2824 15.3333C22.2824 19.3832 18.9989 22.6667 14.9491 22.6667C10.8992 22.6667 7.61572 19.3832 7.61572 15.3333ZM10.3656 15.3336C10.3656 17.86 12.4226 19.917 14.9489 19.917C17.4753 19.917 19.5323 17.86 19.5323 15.3336C19.5323 12.8055 17.4753 10.7503 14.9489 10.7503C12.4226 10.7503 10.3656 12.8055 10.3656 15.3336Z" fill="white"/>
<circle cx="22.8321" cy="7.44982" r="0.977167" fill="white"/>
</svg>
