<svg width="14" height="14" viewBox="0 0 14 14" fill="none" xmlns="http://www.w3.org/2000/svg">
<path d="M7 14C10.866 14 14 10.866 14 7C14 3.13401 10.866 0 7 0C3.13401 0 0 3.13401 0 7C0 10.866 3.13401 14 7 14Z" fill="url(#paint0_linear_470_690)"/>
<path d="M2.60665 7.34316C3.42495 6.89243 4.33839 6.51623 5.19187 6.13811C6.66017 5.51879 8.13432 4.9102 9.62333 4.3436C9.91304 4.24707 10.4336 4.15267 10.4846 4.58199C10.4567 5.18971 10.3417 5.79386 10.2628 6.39802C10.0627 7.72662 9.83131 9.05067 9.60571 10.3749C9.52797 10.816 8.97542 11.0443 8.62186 10.762C7.77218 10.1881 6.91596 9.61976 6.07713 9.03252C5.80235 8.75332 6.05715 8.35236 6.30256 8.15297C7.00238 7.4633 7.74456 6.87734 8.40781 6.15202C8.58671 5.72 8.05809 6.08409 7.88373 6.19567C6.92566 6.85588 5.99104 7.55641 4.98094 8.13665C4.46499 8.42067 3.86363 8.17795 3.3479 8.01947C2.8855 7.82802 2.20789 7.63513 2.6066 7.34322L2.60665 7.34316Z" fill="white"/>
<defs>
<linearGradient id="paint0_linear_470_690" x1="9.33392" y1="2.3338" x2="5.83392" y2="10.5" gradientUnits="userSpaceOnUse">
<stop stop-color="#37AEE2"/>
<stop offset="1" stop-color="#1E96C8"/>
</linearGradient>
</defs>
</svg>
