<svg width="30" height="25" viewBox="0 0 30 25" fill="none" xmlns="http://www.w3.org/2000/svg">
<path d="M29.9491 3.15451C28.8582 3.63301 27.6959 3.95017 26.4841 4.10417C27.7307 3.35984 28.6822 2.19017 29.1296 0.780341C27.9672 1.47334 26.6839 1.96284 25.3162 2.23601C24.2126 1.06084 22.6396 0.333008 20.9236 0.333008C17.5942 0.333008 14.9139 3.03534 14.9139 6.34817C14.9139 6.82484 14.9542 7.28317 15.0532 7.71951C10.0537 7.47567 5.62989 5.07951 2.65806 1.42934C2.13922 2.32951 1.83489 3.35984 1.83489 4.46901C1.83489 6.55167 2.90739 8.39784 4.50606 9.46667C3.53989 9.44834 2.59206 9.16784 1.78906 8.72601C1.78906 8.74434 1.78906 8.76818 1.78906 8.79201C1.78906 11.7143 3.87356 14.1417 6.60706 14.7008C6.11756 14.8347 5.58406 14.8988 5.03039 14.8988C4.64539 14.8988 4.25672 14.8768 3.89189 14.7962C4.67106 17.1777 6.88206 18.9285 9.51106 18.9853C7.46506 20.5858 4.86722 21.5502 2.05489 21.5502C1.56172 21.5502 1.08872 21.5282 0.615723 21.4677C3.27956 23.1855 6.43656 24.1663 9.84106 24.1663C20.9071 24.1663 26.9571 14.9997 26.9571 7.05401C26.9571 6.78817 26.9479 6.53151 26.9351 6.27667C28.1286 5.42967 29.1314 4.37184 29.9491 3.15451Z" fill="white"/>
</svg>
