<svg width="14" height="14" viewBox="0 0 14 14" fill="none" xmlns="http://www.w3.org/2000/svg">
<g clip-path="url(#clip0_470_701)">
<path d="M11.97 2.01192C10.64 0.72625 8.89 0 7.02625 0C1.67708 0 -1.68175 5.79542 0.989333 10.4055L0 14L3.69542 13.0363C5.30542 13.9061 6.62433 13.8291 7.02975 13.8804C13.2323 13.8804 16.3199 6.37642 11.9612 2.03467L11.97 2.01192Z" fill="#ECEFF1"/>
<path d="M7.03877 12.6889L7.03527 12.6884H7.02594C5.16977 12.6884 3.98385 11.8093 3.86719 11.7585L1.67969 12.3273L2.26594 10.201L2.12652 9.98227C1.54902 9.06294 1.24219 8.00419 1.24219 6.91394C1.24219 1.78469 7.5101 -0.780228 11.1373 2.84519C14.7557 6.43269 12.2153 12.6889 7.03877 12.6889Z" fill="#4CAF50"/>
<path d="M10.213 8.34626L10.2077 8.39001C10.0321 8.30251 9.17698 7.88426 9.01773 7.82651C8.66015 7.69409 8.76107 7.80551 8.07448 8.59184C7.9724 8.70559 7.8709 8.71434 7.69765 8.63559C7.52265 8.54809 6.9609 8.36434 6.2959 7.76934C5.7779 7.30559 5.43023 6.73684 5.32757 6.56184C5.15665 6.26667 5.51423 6.22467 5.83973 5.60867C5.89807 5.48617 5.86832 5.38992 5.82515 5.30301C5.7814 5.21551 5.43315 4.35801 5.28732 4.01617C5.14732 3.67551 5.00323 3.71867 4.89532 3.71867C4.55932 3.68951 4.31373 3.69417 4.09732 3.91934C3.15582 4.95417 3.39324 6.02167 4.19882 7.15684C5.78198 9.22884 6.62548 9.61034 8.16782 10.14C8.58432 10.2724 8.96407 10.2538 9.26448 10.2106C9.59932 10.1575 10.2952 9.79001 10.4405 9.37876C10.5892 8.96751 10.5892 8.62626 10.5455 8.54751C10.5023 8.46876 10.388 8.42501 10.213 8.34626Z" fill="#FAFAFA"/>
</g>
<defs>
<clipPath id="clip0_470_701">
<rect width="14" height="14" fill="white"/>
</clipPath>
</defs>
</svg>
